<svg width="230" height="70" viewBox="0 0 230 70" fill="none" xmlns="http://www.w3.org/2000/svg">
<rect width="230" height="70" fill="#C4C4C4"/>
<path d="M27.4414 30.5996C27.4414 29.8444 27.1647 29.2454 26.6113 28.8027C26.0645 28.3535 25.293 28.1289 24.2969 28.1289C23.4635 28.1289 22.7637 28.36 22.1973 28.8223C21.6374 29.278 21.3574 29.8444 21.3574 30.5215H19.4824C19.4824 29.7663 19.6875 29.0892 20.0977 28.4902C20.5143 27.8913 21.0938 27.4258 21.8359 27.0938C22.5781 26.7552 23.3984 26.5859 24.2969 26.5859C25.8854 26.5859 27.1191 26.944 27.998 27.6602C28.877 28.3698 29.3164 29.3594 29.3164 30.6289C29.3164 31.2865 29.1146 31.8854 28.7109 32.4258C28.3073 32.9661 27.7441 33.3926 27.0215 33.7051C28.6947 34.265 29.5312 35.375 29.5312 37.0352C29.5312 38.3112 29.056 39.3236 28.1055 40.0723C27.1549 40.821 25.8854 41.1953 24.2969 41.1953C23.3529 41.1953 22.4935 41.0293 21.7188 40.6973C20.9505 40.3587 20.3516 39.8802 19.9219 39.2617C19.4922 38.6432 19.2773 37.9076 19.2773 37.0547H21.1523C21.1523 37.8034 21.4486 38.4284 22.041 38.9297C22.6335 39.4245 23.3854 39.6719 24.2969 39.6719C25.319 39.6719 26.1328 39.4342 26.7383 38.959C27.3503 38.4837 27.6562 37.8555 27.6562 37.0742C27.6562 35.4076 26.6243 34.5579 24.5605 34.5254H22.8027V32.9824H24.5508C25.5013 32.9629 26.2207 32.748 26.709 32.3379C27.1973 31.9277 27.4414 31.3483 27.4414 30.5996ZM31.6504 39.5254L32.2754 38.7539C32.9785 37.8424 33.3789 36.4753 33.4766 34.6523L33.6426 30.4336H40.4492V39.5254H41.8066V44.1055H40V41H32.627V44.1055H30.8203L30.8301 39.5254H31.6504ZM33.7891 39.5254H38.6426V32.1035H35.3906L35.2832 34.623C35.1725 36.7259 34.6745 38.36 33.7891 39.5254ZM48.1934 41.1953C46.7611 41.1953 45.5957 40.7266 44.6973 39.7891C43.7988 38.8451 43.3496 37.5853 43.3496 36.0098V35.6777C43.3496 34.6296 43.5482 33.6953 43.9453 32.875C44.349 32.0482 44.9089 31.4036 45.625 30.9414C46.3477 30.4727 47.1289 30.2383 47.9688 30.2383C49.3424 30.2383 50.4102 30.6908 51.1719 31.5957C51.9336 32.5007 52.3145 33.7962 52.3145 35.4824V36.2344H45.1562C45.1823 37.276 45.485 38.1191 46.0645 38.7637C46.6504 39.4017 47.3926 39.7207 48.291 39.7207C48.929 39.7207 49.4694 39.5905 49.9121 39.3301C50.3548 39.0697 50.7422 38.7246 51.0742 38.2949L52.1777 39.1543C51.2923 40.515 49.9642 41.1953 48.1934 41.1953ZM47.9688 31.7227C47.2396 31.7227 46.6276 31.9896 46.1328 32.5234C45.638 33.0508 45.332 33.793 45.2148 34.75H50.5078V34.6133C50.4557 33.6953 50.2083 32.9857 49.7656 32.4844C49.3229 31.9766 48.724 31.7227 47.9688 31.7227ZM58.6523 39.7207C59.2969 39.7207 59.86 39.5254 60.3418 39.1348C60.8236 38.7441 61.0905 38.2559 61.1426 37.6699H62.8516C62.819 38.2754 62.6107 38.8516 62.2266 39.3984C61.8424 39.9453 61.3281 40.3815 60.6836 40.707C60.0456 41.0326 59.3685 41.1953 58.6523 41.1953C57.2135 41.1953 56.0677 40.7168 55.2148 39.7598C54.3685 38.7962 53.9453 37.4811 53.9453 35.8145V35.5117C53.9453 34.4831 54.1341 33.5684 54.5117 32.7676C54.8893 31.9668 55.4297 31.3451 56.1328 30.9023C56.8424 30.4596 57.679 30.2383 58.6426 30.2383C59.8275 30.2383 60.8105 30.5931 61.5918 31.3027C62.3796 32.0124 62.7995 32.9336 62.8516 34.0664H61.1426C61.0905 33.3828 60.8301 32.8229 60.3613 32.3867C59.8991 31.944 59.3262 31.7227 58.6426 31.7227C57.7246 31.7227 57.0117 32.0547 56.5039 32.7188C56.0026 33.3763 55.752 34.3301 55.752 35.5801V35.9219C55.752 37.1393 56.0026 38.0768 56.5039 38.7344C57.0052 39.3919 57.7214 39.7207 58.6523 39.7207ZM66.8555 34.0762H69.5996C70.7975 34.0892 71.7448 34.4017 72.4414 35.0137C73.138 35.6257 73.4863 36.4557 73.4863 37.5039C73.4863 38.5586 73.1283 39.4049 72.4121 40.043C71.696 40.681 70.7324 41 69.5215 41H65.0488V30.4336H66.8555V34.0762ZM66.8555 35.5508V39.5254H69.541C70.2181 39.5254 70.7422 39.3529 71.1133 39.0078C71.4844 38.6562 71.6699 38.1777 71.6699 37.5723C71.6699 36.9863 71.4876 36.5078 71.123 36.1367C70.765 35.7591 70.2604 35.5638 69.6094 35.5508H66.8555ZM85.3418 31.0391C86.6699 31.0391 87.7311 31.485 88.5254 32.377C89.3262 33.2624 89.7266 34.431 89.7266 35.8828V36.0488C89.7266 37.0449 89.5345 37.9368 89.1504 38.7246C88.7663 39.5059 88.2129 40.1146 87.4902 40.5508C86.7741 40.9805 85.9473 41.1953 85.0098 41.1953C83.5905 41.1953 82.4479 40.7233 81.582 39.7793C80.7161 38.8288 80.2832 37.556 80.2832 35.9609V35.082C80.2832 32.862 80.6934 31.0977 81.5137 29.7891C82.3405 28.4805 83.5579 27.6829 85.166 27.3965C86.0775 27.2337 86.6927 27.0352 87.0117 26.8008C87.3307 26.5664 87.4902 26.2441 87.4902 25.834H88.9746C88.9746 26.6478 88.7891 27.2826 88.418 27.7383C88.0534 28.194 87.4674 28.5163 86.6602 28.7051L85.3125 29.0078C84.2383 29.2617 83.431 29.6914 82.8906 30.2969C82.3568 30.8958 82.0085 31.6966 81.8457 32.6992C82.8027 31.5924 83.9681 31.0391 85.3418 31.0391ZM84.9902 32.5234C84.1048 32.5234 83.4017 32.8229 82.8809 33.4219C82.36 34.0143 82.0996 34.8379 82.0996 35.8926V36.0488C82.0996 37.1816 82.36 38.0801 82.8809 38.7441C83.4082 39.4017 84.1178 39.7305 85.0098 39.7305C85.9082 39.7305 86.6178 39.3984 87.1387 38.7344C87.6595 38.0703 87.9199 37.1003 87.9199 35.8242C87.9199 34.8281 87.6562 34.0306 87.1289 33.4316C86.6081 32.8262 85.8952 32.5234 84.9902 32.5234ZM95.2148 38.3535L97.6758 30.4336H99.6094L95.3613 42.6309C94.7038 44.3887 93.6589 45.2676 92.2266 45.2676L91.8848 45.2383L91.2109 45.1113V43.6465L91.6992 43.6855C92.3112 43.6855 92.7865 43.5618 93.125 43.3145C93.4701 43.0671 93.7533 42.6146 93.9746 41.957L94.375 40.8828L90.6055 30.4336H92.5781L95.2148 38.3535ZM100.596 39.5254L101.221 38.7539C101.924 37.8424 102.324 36.4753 102.422 34.6523L102.588 30.4336H109.395V39.5254H110.752V44.1055H108.945V41H101.572V44.1055H99.7656L99.7754 39.5254H100.596ZM102.734 39.5254H107.588V32.1035H104.336L104.229 34.623C104.118 36.7259 103.62 38.36 102.734 39.5254ZM117.139 41.1953C115.706 41.1953 114.541 40.7266 113.643 39.7891C112.744 38.8451 112.295 37.5853 112.295 36.0098V35.6777C112.295 34.6296 112.493 33.6953 112.891 32.875C113.294 32.0482 113.854 31.4036 114.57 30.9414C115.293 30.4727 116.074 30.2383 116.914 30.2383C118.288 30.2383 119.355 30.6908 120.117 31.5957C120.879 32.5007 121.26 33.7962 121.26 35.4824V36.2344H114.102C114.128 37.276 114.43 38.1191 115.01 38.7637C115.596 39.4017 116.338 39.7207 117.236 39.7207C117.874 39.7207 118.415 39.5905 118.857 39.3301C119.3 39.0697 119.688 38.7246 120.02 38.2949L121.123 39.1543C120.238 40.515 118.91 41.1953 117.139 41.1953ZM116.914 31.7227C116.185 31.7227 115.573 31.9896 115.078 32.5234C114.583 33.0508 114.277 33.793 114.16 34.75H119.453V34.6133C119.401 33.6953 119.154 32.9857 118.711 32.4844C118.268 31.9766 117.669 31.7227 116.914 31.7227ZM131.094 31.8984H127.549V41H125.742V31.8984H122.266V30.4336H131.094V31.8984ZM146.475 30.4336V41H144.658V31.9277H141.064L140.85 35.8828C140.732 37.6992 140.426 38.998 139.932 39.7793C139.443 40.5605 138.665 40.9674 137.598 41H136.875V39.4082L137.393 39.3691C137.979 39.304 138.398 38.9655 138.652 38.3535C138.906 37.7415 139.069 36.6087 139.141 34.9551L139.336 30.4336H146.475ZM148.896 35.6191C148.896 34.584 149.098 33.653 149.502 32.8262C149.912 31.9993 150.479 31.3613 151.201 30.9121C151.93 30.4629 152.76 30.2383 153.691 30.2383C155.13 30.2383 156.292 30.7363 157.178 31.7324C158.07 32.7285 158.516 34.0534 158.516 35.707V35.834C158.516 36.8626 158.317 37.7871 157.92 38.6074C157.529 39.4212 156.966 40.056 156.23 40.5117C155.501 40.9674 154.661 41.1953 153.711 41.1953C152.279 41.1953 151.117 40.6973 150.225 39.7012C149.339 38.7051 148.896 37.3867 148.896 35.7461V35.6191ZM150.713 35.834C150.713 37.0059 150.983 37.9466 151.523 38.6562C152.07 39.3659 152.799 39.7207 153.711 39.7207C154.629 39.7207 155.358 39.3626 155.898 38.6465C156.439 37.9238 156.709 36.9147 156.709 35.6191C156.709 34.4603 156.432 33.5228 155.879 32.8066C155.332 32.084 154.603 31.7227 153.691 31.7227C152.799 31.7227 152.08 32.0775 151.533 32.7871C150.986 33.4967 150.713 34.5124 150.713 35.834ZM167.607 31.9277H162.734V41H160.918V30.4336H167.607V31.9277ZM168.506 35.6191C168.506 34.584 168.708 33.653 169.111 32.8262C169.521 31.9993 170.088 31.3613 170.811 30.9121C171.54 30.4629 172.37 30.2383 173.301 30.2383C174.74 30.2383 175.902 30.7363 176.787 31.7324C177.679 32.7285 178.125 34.0534 178.125 35.707V35.834C178.125 36.8626 177.926 37.7871 177.529 38.6074C177.139 39.4212 176.576 40.056 175.84 40.5117C175.111 40.9674 174.271 41.1953 173.32 41.1953C171.888 41.1953 170.726 40.6973 169.834 39.7012C168.949 38.7051 168.506 37.3867 168.506 35.7461V35.6191ZM170.322 35.834C170.322 37.0059 170.592 37.9466 171.133 38.6562C171.68 39.3659 172.409 39.7207 173.32 39.7207C174.238 39.7207 174.967 39.3626 175.508 38.6465C176.048 37.9238 176.318 36.9147 176.318 35.6191C176.318 34.4603 176.042 33.5228 175.488 32.8066C174.941 32.084 174.212 31.7227 173.301 31.7227C172.409 31.7227 171.689 32.0775 171.143 32.7871C170.596 33.4967 170.322 34.5124 170.322 35.834ZM188.027 31.8984H184.482V41H182.676V31.8984H179.199V30.4336H188.027V31.8984ZM196.621 30.4336H198.428V41H196.621V33.2949L191.748 41H189.941V30.4336H191.748V38.1484L196.621 30.4336ZM209.971 41H208.164V31.9277H203.301V41H201.484V30.4336H209.971V41Z" fill="black"/>
</svg>
