<svg xmlns="http://www.w3.org/2000/svg" xmlns:xlink="http://www.w3.org/1999/xlink" width="298.27mm" height="232.19mm" viewBox="0 0 845.49 658.18">
  <defs>
    <style>
      .cls-1, .cls-4 {
        fill: none;
      }

      .cls-2 {
        fill: #444343;
      }

      .cls-3 {
        fill: #f27b28;
      }

      .cls-4 {
        stroke: #444343;
        stroke-miterlimit: 10;
        stroke-width: 14px;
      }

      .cls-5 {
        clip-path: url(#clip-path);
      }
    </style>
    <clipPath id="clip-path" transform="translate(0 0)">
      <rect class="cls-1" x="0.12" width="845.37" height="658.18"/>
    </clipPath>
  </defs>
  <title>Ресурс 3</title>
  <g id="Слой_2" data-name="Слой 2">
    <g id="Слой_1-2" data-name="Слой 1">
      <g>
        <path class="cls-2" d="M547.32,70.51v-48a14,14,0,0,0-14-13.95h-84.8a14,14,0,0,0-13.95,14v31.6a503.66,503.66,0,0,1,112.7,16.42Z" transform="translate(0 0)"/>
        <path class="cls-2" d="M411.85,53.92V14A14,14,0,0,0,397.9,0H313.1a14,14,0,0,0-14,14V69.64a462.58,462.58,0,0,1,112.7-15.72Z" transform="translate(0 0)"/>
        <path class="cls-2" d="M233.88,95a4.74,4.74,0,0,1,2.78-3.5q20-8.65,39.71-15V22.49A14,14,0,0,0,262.42,8.54h-84.8a14,14,0,0,0-14,14v84.8a14,14,0,0,0,14,13.95h52.59c1.35-13,2.9-22.14,3.67-26.29Z" transform="translate(0 0)"/>
        <path class="cls-2" d="M228.8,137.68H159a14,14,0,0,0-14,13.95v84.8a14,14,0,0,0,14,13.95h75.9c-8-43.7-8-83.83-6.09-112.7Z" transform="translate(0 0)"/>
        <path class="cls-2" d="M238.27,266.82H175.39a13.94,13.94,0,0,0-13.95,13.95v84.8a14,14,0,0,0,13.95,13.95h84.8a14,14,0,0,0,13.95-13.95v-5c-17.56-30.8-28.83-62.91-35.87-93.75Z" transform="translate(0 0)"/>
        <path class="cls-2" d="M260.19,396H127.26a14,14,0,0,0-14,13.95v84.8a13.94,13.94,0,0,0,14,13.95H260.19a14,14,0,0,0,13.95-13.95V409.9A14,14,0,0,0,260.19,396Z" transform="translate(0 0)"/>
        <path class="cls-2" d="M301,400.07a13.88,13.88,0,0,0-4.06,9.83v84.8a14,14,0,0,0,13.95,13.95h84.8a13.94,13.94,0,0,0,13.95-13.95v-9.39c-47.12-23-82.38-52.58-108.64-85.24Z" transform="translate(0 0)"/>
        <path class="cls-2" d="M434.62,486.44v21.2a14,14,0,0,0,13.95,14h84.8a14,14,0,0,0,14-14V409.9a13.93,13.93,0,0,0-3-8.57c-26.48,32.7-62.08,62.28-109.75,85.11Z" transform="translate(0 0)"/>
        <path class="cls-3" d="M668.85,396h-84.8A14,14,0,0,0,570.1,409.9v84.8a13.94,13.94,0,0,0,13.95,13.95h84.8A14,14,0,0,0,682.8,494.7V409.9A14,14,0,0,0,668.85,396Z" transform="translate(0 0)"/>
        <path class="cls-2" d="M732.72,266.82H607.54c-7.14,32-18.86,65.36-37.44,97.21v1.54a14,14,0,0,0,13.95,13.95H732.72a14,14,0,0,0,13.95-13.95v-84.8a14,14,0,0,0-13.95-13.95Z" transform="translate(0 0)"/>
        <path class="cls-2" d="M668.85,137.68H616.36c2.11,28.87,2.32,69-5.51,112.7h58a14,14,0,0,0,13.95-13.95v-84.8a14,14,0,0,0-13.95-13.95Z" transform="translate(0 0)"/>
        <path class="cls-2" d="M668.85,8.54h-84.8a14,14,0,0,0-13.95,14V77.11a361.54,361.54,0,0,1,38.24,14.32A4.74,4.74,0,0,1,611,94.85c.78,4.1,2.4,13.32,3.83,26.39h54a14,14,0,0,0,13.95-13.95V22.49A14,14,0,0,0,668.85,8.54Z" transform="translate(0 0)"/>
        <path class="cls-4" d="M534.08,272.75A111.42,111.42,0,1,1,422.67,161.34,111.42,111.42,0,0,1,534.08,272.75Z" transform="translate(0 0)"/>
        <path class="cls-3" d="M505.39,272.75A82.72,82.72,0,1,1,422.67,190a82.72,82.72,0,0,1,82.72,82.72Z" transform="translate(0 0)"/>
        <path class="cls-2" d="M442.7,259.41a19.47,19.47,0,1,1-19.47-19.47,19.47,19.47,0,0,1,19.47,19.47Z" transform="translate(0 0)"/>
        <g class="cls-5">
          <polygon class="cls-2" points="442.7 305.56 403.76 305.56 414.22 258.69 432.25 258.69 442.7 305.56 442.7 305.56"/>
          <path class="cls-2" d="M26.54,642.18c-10.2,0-26.54-4-26.54-12.28,0-3.83,3.59-7,7.53-7,5,0,8.93,5.22,17.85,5.22,8.7,0,13.45-4.87,13.45-10.9,0-7.76-7.88-9.85-16.81-10.43-4.4-.23-8.92-.69-8.92-7.42s4.52-6.83,8-6.95c7.77-.23,16-3.59,16-10.9,0-4.28-2.78-9.15-11-9.15a22.33,22.33,0,0,0-8.93,1.85c-2.66,1.16-5.21,3.36-8.46,3.36-3.71,0-7.42-2.9-7.42-6.72,0-7.65,15-12.52,25.74-12.52,17.15,0,25.84,12.29,25.84,23,0,7.77-4.52,13.22-13,17.5,9.27,3.71,15.07,9.39,15.07,18.78,0,12.87-11,24.57-28.4,24.57Z" transform="translate(0 0)"/>
        </g>
        <path class="cls-2" d="M95.39,592a73.83,73.83,0,0,1-2.09-11.35A72.64,72.64,0,0,1,91.22,592l-6.14,19.82H101.3L95.39,592ZM77,636.73a8.65,8.65,0,0,1-7.65,5.45c-4.52,0-8.34-3-8.34-7.42a9.77,9.77,0,0,1,.34-2.55l22.61-66c1.5-4.52,3.82-7.88,9.38-7.88s7.89,3.25,9.51,7.88l22.6,66a9.79,9.79,0,0,1,.35,2.55c0,4.41-3.59,7.42-8.35,7.42a8.91,8.91,0,0,1-7.88-5.45L105.47,625H80.79L77,636.73Z" transform="translate(0 0)"/>
        <path class="cls-2" d="M134.8,633.6V565.92c0-4.06,3.59-7.54,8.11-7.54s8.12,3.48,8.12,7.54v60.5h14.6V565.8c0-3.94,3.59-7.42,8.11-7.42s8.12,3.48,8.12,7.42v60.62h14.72v-60.5c0-4.06,3.82-7.54,8.11-7.54s8.11,3.48,8.11,7.54v60.5H214c4.29,0,8.12,3.48,8.12,7.42v16.8c0,4.06-3.71,7.54-8.12,7.54s-8.11-3.48-8.11-7.54v-9.5H142.91c-4.52,0-8.11-3.48-8.11-7.54Z" transform="translate(0 0)"/>
        <path class="cls-2" d="M230.31,634.3V565.92a7.77,7.77,0,0,1,8-7.54c4.41,0,8.23,3.48,8.23,7.54v43.81c10.67-18.66,16.58-29.21,26.89-47.06a9.65,9.65,0,0,1,7.89-4.29c4.86,0,8.46,3.36,8.46,7.88v68.39a7.77,7.77,0,0,1-8,7.53c-4.41,0-8.23-3.47-8.23-7.53V591.3l-26.89,46.83a9.5,9.5,0,0,1-7.77,4c-5.1,0-8.57-3.59-8.57-7.88Z" transform="translate(0 0)"/>
        <path class="cls-2" d="M319.33,574.15H307c-4.64,0-8.12-3.36-8.12-7.31,0-3.24,3.6-7.42,8.12-7.42h40.8c4.17,0,8.23,3.25,8.23,7.42,0,3.95-3.83,7.31-8.23,7.31H335.55v60.61c0,4-3.71,7.42-8.11,7.42s-8.11-3.47-8.11-7.42V574.15Z" transform="translate(0 0)"/>
        <path class="cls-2" d="M365.11,634.3V565.92a7.78,7.78,0,0,1,8-7.54c4.4,0,8.22,3.48,8.22,7.54v43.81c10.67-18.66,16.58-29.21,26.9-47.06a9.61,9.61,0,0,1,7.88-4.29c4.87,0,8.46,3.36,8.46,7.88v68.39a7.77,7.77,0,0,1-8,7.53c-4.4,0-8.23-3.47-8.23-7.53V591.3l-26.89,46.83a9.48,9.48,0,0,1-7.76,4c-5.1,0-8.58-3.59-8.58-7.88Z" transform="translate(0 0)"/>
        <path class="cls-2" d="M535.56,584.69v24.58h4.05c8.7,0,13.33-3.83,13.33-12.18,0-6-2.43-12.4-13.33-12.4Zm-16.23,24.58V584.69h-4.06c-10.89,0-13.32,6.38-13.32,12.4,0,8.35,4.63,12.18,13.32,12.18Zm0,14.83h-4.06c-18,0-29.55-9.62-29.55-26.89,0-14.14,7.76-27.24,29.55-27.24h4.06V565.8c0-3.94,4.06-7.42,8.11-7.42,4.87,0,8.12,3.48,8.12,7.42V570h4.05c21.8,0,29.56,13.1,29.56,27.24,0,17.27-11.59,26.89-29.56,26.89h-4.05v10.66c0,4-3.71,7.42-8.12,7.42s-8.11-3.47-8.11-7.42V624.1Z" transform="translate(0 0)"/>
        <path class="cls-2" d="M606.38,592a73.83,73.83,0,0,1-2.09-11.35A72.64,72.64,0,0,1,602.21,592l-6.15,19.82h16.23L606.38,592ZM588,636.73a8.65,8.65,0,0,1-7.65,5.45c-4.52,0-8.34-3-8.34-7.42a9.77,9.77,0,0,1,.34-2.55l22.61-66c1.5-4.52,3.82-7.88,9.38-7.88s7.88,3.25,9.51,7.88l22.6,66a9.79,9.79,0,0,1,.35,2.55c0,4.41-3.6,7.42-8.35,7.42a8.91,8.91,0,0,1-7.88-5.45L616.46,625H591.78L588,636.73Z" transform="translate(0 0)"/>
        <path class="cls-2" d="M658.77,611.7c0,10,3.48,16.23,13.91,16.23a17,17,0,0,0,9.62-2.79l1.16-.69c1.5-.93,2.32-1.74,5-1.74,4.41,0,7.65,3.25,7.65,6.95,0,6.73-11.7,12.41-24,12.41-20.28,0-29.56-12.06-29.56-30.37v-23c0-18.31,9.28-30.37,29.56-30.37,12.29,0,24,5.68,24,12.41,0,3.7-3.24,7-7.65,7-2.66,0-3.48-.81-5-1.74l-1.16-.7a17.06,17.06,0,0,0-9.62-2.78c-10.43,0-13.91,6.26-13.91,16.23v23Z" transform="translate(0 0)"/>
        <path class="cls-2" d="M737.93,592a72.64,72.64,0,0,1-2.08-11.35A73.83,73.83,0,0,1,733.76,592l-6.14,19.82h16.22L737.93,592ZM719.5,636.73a8.64,8.64,0,0,1-7.65,5.45c-4.52,0-8.34-3-8.34-7.42a9.77,9.77,0,0,1,.34-2.55l22.61-66c1.5-4.52,3.82-7.88,9.39-7.88s7.88,3.25,9.5,7.88l22.6,66a9.79,9.79,0,0,1,.35,2.55c0,4.41-3.59,7.42-8.35,7.42a8.91,8.91,0,0,1-7.88-5.45L748,625H723.33l-3.83,11.7Z" transform="translate(0 0)"/>
        <path class="cls-2" d="M797.51,626.42h24.11V574H803.77l-1,27.35c-.46,10-2.08,18.55-5.21,25Zm-11-25.27,1.74-33.38a9,9,0,0,1,9-8.35H828.8c4.87,0,9,3.83,9,8.35v58.65c4.87,0,7.65,4.06,7.65,8.58v14.83c0,4.18-3.59,7.42-8.22,7.42s-8-3.24-8-7.42v-8.69H788v8.69c0,4.18-3.48,7.42-8,7.42s-8-3.24-8-7.42V635c0-4.52,3.13-8.58,8-8.58,3.82-4.52,5.91-13.33,6.49-25.27Z" transform="translate(0 0)"/>
      </g>
    </g>
  </g>
</svg>
