<svg height="70" width="231" xmlns="http://www.w3.org/2000/svg"><path d="m-1-1h582v402h-582z" fill="none"/><g clip-rule="evenodd" fill-rule="evenodd"><path d="m22.8 4.1-14.6 8.3c-7.7 4.5-8.4 5.7-8.4 14.6v16.7c0 8.8.7 10.1 8.4 14.5l14.6 8.4c7.7 4.4 9.2 4.5 16.9 0l14.6-8.4c7.7-4.4 8.4-5.7 8.4-14.5v-16.7c0-8.9-.7-10.1-8.5-14.5l-14.6-8.4c-7.7-4.5-9.1-4.5-16.8 0zm-.5 24.8-17.9-9 16.7 10.9c4.8 3.1 4.8 5.7 0 8.9l-16.7 11 17.9-8.9c5.1-2.6 7.4-1.3 7.7 4.4l1.2 19.8 1.2-19.9c.3-5.7 2.6-7 7.7-4.4l17.9 9-16.8-11c-4.8-3.1-4.8-5.7 0-8.9l16.8-10.9-17.9 8.9c-5.1 2.6-7.4 1.3-7.7-4.4l-1.2-19.8-1.1 19.8c-.4 5.7-2.6 7.1-7.8 4.5z" fill="#da272b"/><path d="m106.7 32h-4.2c0-2.5 0-5.1 0-7.6 0-.4-.3-.7-.7-.7h-2.7c-.4 0-.7.3-.7.7v18.6c0 .4.3.7.7.7h2.7c.4 0 .7-.3.7-.7v-7.6h4.2l6 7c1.4 1.4 2.5 1.4 4 1.4h.7c.6 0 1-.1 1-.6 0-.4-.2-.6-.4-.8l-7.6-8.6 7.6-8.8c.2-.2.4-.5.4-.8 0-.5-.4-.6-1-.6h-.7c-1.5 0-2.7 0-4 1.4zm92.2-8.4c-2.5 0-4.2 1.6-4.2 4.2v15.2c0 .4.3.7.7.7h2.7c.4 0 .7-.3.7-.7 0-4.8 0-9.7 0-14.5 0-.5.2-.7.7-.7h6.6v15.2c0 .4.3.7.7.7h2.7c.4 0 .7-.3.7-.7v-15.2h6.6c.5 0 .7.2.7.7v14.5c0 .4.3.7.7.7h2.7c.4 0 .7-.3.7-.7 0-5.1 0-10.1 0-15.2 0-2.5-1.7-4.2-4.2-4.2h-7.8c-1.3 0-1.6.8-1.6 1.2 0-.4-.3-1.2-1.6-1.2zm-25.1 8.4v-3.5c0-.4.3-.7.7-.7h10.3c.4 0 .7.3.7.7v2.7c0 .4-.3.7-.7.7-3.6.1-7.3.1-11 .1zm-4.2-4.2v15.2c0 .4.3.7.7.7h2.7c.4 0 .7-.3.7-.7v-7.6h11.7c2.7 0 4.2-1.3 4.2-3.4v-4.2c0-2.5-1.7-4.2-4.2-4.2h-11.7c-2.7 0-4.1 1.5-4.1 4.2zm-80.7-4.2c2.5 0 4.2 1.6 4.2 4.2v15.2c0 .4-.3.7-.7.7h-2.7c-.4 0-.7-.3-.7-.7v-7.6h-11.8v7.6c0 .4-.3.7-.7.7h-2.7c-.4 0-.7-.3-.7-.7v-15.2c0-2.5 1.7-4.2 4.2-4.2zm0 8.4v-3.5c0-.5-.2-.7-.7-.7h-10.3c-.5 0-.7.2-.7.7v3.5zm59.8-8.4c-2.9 0-4.2 1.6-4.2 4.2v11.7c0 2.5 1.8 4.2 4.4 4.2h15c.4 0 .7-.3.7-.7v-2.7c0-.4-.3-.7-.7-.7-4.8 0-9.6 0-14.4 0-.4 0-.7-.3-.7-.7v-3.5h11.1c.3 0 .6-.3.6-.6v-2.2c0-.3-.3-.6-.6-.6h-11.1v-3.5c0-.4.3-.7.7-.7h14.4c.4 0 .7-.3.7-.7v-2.8c0-.4-.3-.7-.7-.7-5.1 0-10.1 0-15.2 0zm-19.7 19.4v-15.2h-7.2c-.4 0-.7-.3-.7-.7v-2.8c0-.4.3-.7.7-.7h18.6c.4 0 .7.3.7.7v2.7c0 .4-.3.7-.7.7h-7.2v15.3c0 .4-.3.7-.7.7h-2.7c-.5 0-.8-.3-.8-.7z" fill="#000"/></g></svg>